<svg width="48" height="48" viewBox="0 0 48 48" fill="none" xmlns="http://www.w3.org/2000/svg">
<path d="M11 11C11 7.41015 13.9101 4.5 17.5 4.5H24V17.5H17.5C13.9101 17.5 11 14.5899 11 11Z" fill="#F24E1E"/>
<path d="M11 24C11 20.4102 13.9101 17.5 17.5 17.5H24V30.5H17.5C13.9101 30.5 11 27.5899 11 24Z" fill="#A259FF"/>
<rect x="24" y="17.5" width="13" height="13" rx="6.5" fill="#1ABCFE"/>
<path d="M11 37C11 33.4102 13.9101 30.5 17.5 30.5H24V37C24 40.5898 21.0899 43.5 17.5 43.5C13.9102 43.5 11 40.5899 11 37Z" fill="#0ACF83"/>
<path d="M24 4.5H30.5C34.0899 4.5 37 7.41015 37 11C37 14.5899 34.0899 17.5 30.5 17.5H24V4.5Z" fill="#FF7262"/>
</svg>
