<svg width="48" height="48" viewBox="0 0 48 48" fill="none" xmlns="http://www.w3.org/2000/svg">
<path d="M8.90354 7.55073L28.8682 6.08207C31.3196 5.87157 31.9511 6.01351 33.4919 7.13215L39.8646 11.6115C40.9159 12.3813 41.2671 12.5918 41.2671 13.4314V37.9982C41.2671 39.5378 40.7054 40.4483 38.7447 40.5879L15.5612 41.9868C14.089 42.0565 13.3889 41.8472 12.6179 40.8669L7.92323 34.777C7.08124 33.6571 6.73242 32.8187 6.73242 31.8372V9.99971C6.73242 8.74154 7.29294 7.69026 8.90354 7.55194V7.55073Z" fill="white"/>
<path fill-rule="evenodd" clip-rule="evenodd" d="M28.8682 6.08207L8.90354 7.55314C7.29294 7.69147 6.73242 8.74275 6.73242 10.0009V31.8384C6.73242 32.8199 7.08124 33.6583 7.92323 34.7782L12.6167 40.8681C13.3865 41.8484 14.0878 42.0589 15.56 41.9868L38.7447 40.5879C40.7054 40.4483 41.2671 39.5378 41.2671 37.9982V13.4314C41.2671 12.6351 40.9519 12.4054 40.0234 11.7282C39.9704 11.6893 39.9175 11.6505 39.8646 11.6115L33.4919 7.13215C31.9511 6.01351 31.3184 5.87157 28.8682 6.08207ZM16.0857 13.0285C14.1924 13.156 13.763 13.1848 12.6877 12.3116L9.95362 10.1416C9.67456 9.86139 9.81529 9.51136 10.5153 9.4428L29.709 8.0427C31.3196 7.90196 32.1604 8.46369 32.7907 8.95204L36.0829 11.3325C36.2224 11.4022 36.5724 11.822 36.1526 11.822L16.3299 13.0128L16.0857 13.0285ZM13.8773 37.7877V16.9305C13.8773 16.0211 14.1575 15.6013 14.9983 15.5304L37.7632 14.2012C38.5354 14.1315 38.8855 14.6222 38.8855 15.5304V36.2468C38.8855 37.1586 38.7447 37.9284 37.483 37.9982L15.6996 39.2587C14.4366 39.3285 13.8773 38.9099 13.8773 37.7877ZM35.384 18.0491C35.5235 18.6806 35.384 19.3109 34.7513 19.3818L33.7024 19.5911V34.9875C32.7907 35.4782 31.9499 35.7573 31.2499 35.7573C30.1288 35.7573 29.8485 35.4084 29.0078 34.3584L22.1432 23.5809V34.0095L24.3155 34.4991C24.3155 34.4991 24.3155 35.7585 22.5618 35.7585L17.73 36.0387C17.5892 35.7585 17.73 35.0584 18.2207 34.9189L19.4813 34.5701V20.7795L17.73 20.6388C17.5904 20.0085 17.9393 19.0992 18.9208 19.0294L24.105 18.6806L31.2499 29.5987V19.94L29.4288 19.7307C29.288 18.9596 29.8485 18.3991 30.5486 18.3306L35.384 18.0491Z" fill="black"/>
</svg>
