<svg width="1699" height="1699" viewBox="0 0 1699 1699" fill="none" xmlns="http://www.w3.org/2000/svg">
<path d="M849.273 0C380.132 0 0 380.337 0 849.601C0 1318.86 380.318 1698.92 849.462 1698.92C1318.6 1698.92 1698.92 1318.45 1698.92 849.601C1698.92 380.752 1318.41 0 849.273 0ZM1447.67 824.634L1269.64 1296.48C1259.35 1323.85 1226.88 1346.32 1197.67 1346.32H1019.45C990.236 1346.32 957.909 1323.89 947.787 1296.25L870.273 1086.05C860.269 1058.64 843.869 1058.69 834.195 1086.33L759.938 1296.11C750.169 1323.66 718.22 1346.27 688.89 1346.27H509.658C480.403 1346.27 447.688 1324.03 436.982 1296.71L250.839 824.358C240.133 797.085 255.268 774.704 284.522 774.704H410.127C439.382 774.704 470.76 797.592 479.804 825.419L581.126 1138.2C590.187 1166.03 605.949 1166.4 616.261 1138.98L734.053 824.681C744.341 797.177 776.691 774.704 805.997 774.704H896.63C925.913 774.704 958.216 797.132 968.363 824.773L1085.26 1138.89C1095.5 1166.44 1111.05 1166.03 1119.92 1138.15L1218.58 825.651C1227.38 797.732 1258.48 774.751 1287.83 774.751H1413.48C1442.79 774.751 1458.24 797.177 1447.67 824.634Z" fill="#C11F2F"/>
</svg>
