<svg width="48" height="48" viewBox="0 0 48 48" fill="none" xmlns="http://www.w3.org/2000/svg">
<path d="M40.9224 20.4637C41.2561 19.4743 41.4263 18.4384 41.4265 17.3956C41.4263 15.6702 40.9605 13.9759 40.0769 12.487C38.3014 9.43757 35.0078 7.5549 31.4433 7.5549C30.741 7.55491 30.0408 7.62809 29.3541 7.77322C28.4305 6.74649 27.2968 5.9246 26.0278 5.36174C24.7588 4.79888 23.3833 4.50784 21.9919 4.50781H21.9294L21.906 4.50795C17.5887 4.50795 13.76 7.25669 12.4328 11.3089C11.059 11.5866 9.76115 12.1506 8.62614 12.9632C7.49113 13.7758 6.54515 14.8183 5.85152 16.0208C4.97061 17.5187 4.5064 19.2197 4.50586 20.9515C4.5062 23.3854 5.42185 25.7326 7.07552 27.5385C6.74171 28.5279 6.57147 29.5638 6.57133 30.6066C6.57148 32.332 7.03728 34.0263 7.92085 35.5153C8.97158 37.3203 10.5762 38.7495 12.5033 39.5967C14.4303 40.4438 16.5803 40.6652 18.6431 40.2289C19.5668 41.2556 20.7006 42.0775 21.9697 42.6404C23.2388 43.2033 24.6144 43.4943 26.0059 43.4944H26.0684L26.0937 43.4943C30.4134 43.4943 34.2408 40.7454 35.568 36.6895C36.9418 36.4117 38.2397 35.8477 39.3747 35.0351C40.5097 34.2225 41.4557 33.18 42.1494 31.9775C43.0294 30.4809 43.4927 28.7814 43.4925 27.0511C43.4921 24.6173 42.5765 22.2701 40.9228 20.4642L40.9224 20.4637ZM26.0708 40.9456H26.0606C24.3322 40.9451 22.6586 40.3468 21.3309 39.2547C21.4097 39.2129 21.4876 39.1693 21.5646 39.1241L29.4319 34.6402C29.6282 34.5299 29.7915 34.3704 29.9051 34.1777C30.0186 33.985 30.0785 33.7661 30.0786 33.5432V22.5919L33.4039 24.4864C33.4214 24.495 33.4364 24.5077 33.4477 24.5234C33.459 24.5391 33.4662 24.5573 33.4686 24.5764V33.6394C33.4641 37.6688 30.1549 40.9375 26.0708 40.9456ZM10.1616 34.2413C9.5118 33.1326 9.16943 31.8746 9.16899 30.5938C9.16899 30.1761 9.20596 29.7573 9.27797 29.3457C9.33646 29.3802 9.43854 29.4418 9.51179 29.4833L17.3791 33.9671C17.5753 34.0801 17.7983 34.1396 18.0254 34.1396C18.2526 34.1396 18.4756 34.0799 18.6717 33.9669L28.2769 28.4946V32.2837L28.277 32.2903C28.277 32.3085 28.2727 32.3265 28.2645 32.3428C28.2562 32.3592 28.2442 32.3734 28.2294 32.3843L20.2763 36.9151C19.1509 37.5542 17.8754 37.8907 16.577 37.8911C15.2772 37.8909 14.0003 37.5535 12.8743 36.9129C11.7484 36.2722 10.8129 35.3508 10.1616 34.2409V34.2413ZM8.09191 17.2948C8.95599 15.8139 10.3204 14.68 11.9463 14.0916C11.9463 14.1584 11.9424 14.2768 11.9424 14.359V23.3269L11.9423 23.3342C11.9423 23.5569 12.0021 23.7756 12.1155 23.9681C12.2289 24.1606 12.3919 24.3201 12.588 24.4303L22.1932 29.9018L18.868 31.7963C18.8516 31.807 18.8328 31.8135 18.8132 31.8153C18.7936 31.817 18.7739 31.814 18.7558 31.8064L10.8019 27.2718C9.67744 26.6291 8.74398 25.7061 8.09501 24.5952C7.44604 23.4844 7.10436 22.2248 7.10421 20.9427C7.10471 19.6625 7.44541 18.4049 8.09232 17.2952L8.09191 17.2948ZM35.4128 23.5679L25.8076 18.0958L29.133 16.202C29.1494 16.1913 29.1682 16.1848 29.1878 16.183C29.2073 16.1813 29.227 16.1843 29.2451 16.1919L37.199 20.7227C38.3243 21.3644 39.2587 22.2869 39.9085 23.3976C40.5583 24.5083 40.9005 25.7681 40.9007 27.0506C40.9007 30.1116 38.9649 32.8505 36.0543 33.9077V24.6717C36.0547 24.6683 36.0547 24.6647 36.0547 24.6613C36.0546 24.4395 35.9953 24.2216 35.8826 24.0296C35.7699 23.8376 35.6078 23.6784 35.4128 23.5679ZM38.7226 18.6529C38.6452 18.6061 38.5673 18.5603 38.4889 18.5154L30.6215 14.0314C30.4254 13.9186 30.2024 13.8592 29.9754 13.8591C29.7484 13.8592 29.5254 13.9186 29.3293 14.0314L19.7239 19.5037V15.7145L19.7238 15.708C19.7238 15.671 19.7416 15.6362 19.7715 15.614L27.7247 11.087C28.8496 10.447 30.1253 10.1102 31.4238 10.1101C35.5131 10.1101 38.8293 13.3822 38.8293 17.417C38.8291 17.8311 38.7934 18.2444 38.7226 18.6525V18.6529ZM17.916 25.4064L14.59 23.5119C14.5725 23.5033 14.5575 23.4906 14.5462 23.4749C14.5349 23.4592 14.5277 23.441 14.5253 23.4219V14.3588C14.5271 10.3261 17.8433 7.05674 21.9308 7.05674C23.662 7.05709 25.3384 7.65548 26.6691 8.74804C26.6092 8.7803 26.5048 8.83719 26.4354 8.87871L18.5681 13.3626C18.3718 13.4728 18.2086 13.6323 18.095 13.8249C17.9814 14.0175 17.9216 14.2364 17.9215 14.4592V14.4664L17.916 25.4064ZM19.7224 21.5636L24.0004 19.1256L28.2784 21.562V26.4363L24.0004 28.8728L19.7224 26.4363V21.5636Z" fill="black"/>
</svg>
