<svg width="29" height="21" viewBox="0 0 29 21" fill="none" xmlns="http://www.w3.org/2000/svg">
<path d="M25.1228 2.98544C21.1434 -0.994002 14.6682 -0.996291 10.6887 2.98544L8.16553 5.50865L12.8616 10.2048L15.3848 7.68155C16.7747 6.29172 19.0369 6.29172 20.429 7.68155C21.8188 9.07367 21.8188 11.3359 20.429 12.7257C19.0369 14.1178 16.7747 14.1178 15.3848 12.7257L12.8616 10.2025L8.16553 14.8986L10.6887 17.4218C14.6682 21.4012 21.1457 21.4012 25.1251 17.4218C29.1045 13.4423 29.1045 6.96717 25.1251 2.98773" fill="#0E9384"/>
<path d="M4.69521 5.50761L0 10.2028L4.69521 14.898L9.39043 10.2028L4.69521 5.50761Z" fill="#0E9384"/>
</svg>
